Coordinates
version=1
nRows=12
nColumns=33
inDegrees=yes

Units are S.I. units (second, meters, Newtons, ...)
Angles are in degrees.

endheader
time	ground_thorax_rot_x	ground_thorax_rot_y	ground_thorax_rot_z	ground_thorax_tx	ground_thorax_ty	ground_thorax_tz	clav_prot_r	clav_elev_r	scapula_abduction_r	scapula_elevation_r	scapula_upward_rot_r	scapula_winging_r	shoulder_elv_r	plane_of_elev_r	axial_rot_r	elbow_flexion_r	pro_sup_r	wrist_flex_r	wrist_dev_r	clav_prot_l	clav_elev_l	scapula_abduction_l	scapula_elevation_l	scapula_upward_rot_l	scapula_winging_l	shoulder_elv_l	plane_of_elev_l	axial_rot_l	elbow_flexion_l	pro_sup_l	wrist_flex_l	wrist_dev_l
      5.21000000	    -90.00000000	     90.00000000	    -90.00000000	    -65.49902945	    855.69632008	    -39.98842727	     29.91588294	     34.44988612	     45.00000000	     45.00000000	     15.68386247	   1781.45726247	    110.06722728	     31.32545374	    -33.40666427	   2518.54285601	    161.23585892	     15.46669107	     15.30018424	    -45.00000000	     19.90444788	     36.68440932	    -15.84651420	     45.00000000	   4424.77815727	  -4205.07902074	     23.15171614	   -169.75060369	   1790.70769129	     44.61206958	     12.55514075	    -23.14938370
      5.22000000	    -90.00000000	     90.00000000	    -90.00000000	    -63.39179871	    855.30392967	    -40.11255705	     29.90930677	     34.49986176	     45.00000000	     45.00000000	     15.52227795	   1781.29924195	    110.03475822	     31.17052914	    -34.18920510	   2518.50963162	    160.64493480	     15.30273199	     15.42260481	    -45.00000000	     20.01698644	     36.84038080	    -15.88496863	     45.00000000	   4424.85385725	  -4205.01028490	     22.96310123	   -168.93306994	   1790.69366266	     44.40311009	     12.68344681	    -23.05591206
      5.23000000	    -90.00000000	     90.00000000	    -90.00000000	    -61.15619402	    854.85179978	    -40.24433768	     29.90009183	     34.55168679	     45.00000000	     45.00000000	     15.35731005	   1781.12946377	    109.99947653	     31.00347422	    -35.03423056	   2518.47893307	    160.12882395	     15.14613394	     15.54562592	    -45.00000000	     20.14651923	     37.00914462	    -15.94212680	     45.00000000	   4424.94306423	  -4204.95182859	     22.75138268	   -168.06824001	   1790.64991283	     44.21559865	     12.82581387	    -22.94517179
      5.24000000	    -90.00000000	     90.00000000	    -90.00000000	    -58.79160784	    854.33401514	    -40.38008408	     29.89087100	     34.61222476	     45.00000000	     45.00000000	     15.11187522	   1780.97392794	    109.88050118	     30.84765063	    -35.93043527	   2518.44237027	    159.67967058	     15.00744850	     15.65262273	    -45.00000000	     20.27456708	     37.15078241	    -15.96760359	     45.00000000	   4424.93694600	  -4204.90392772	     22.49080585	   -167.14643198	   1790.67230815	     44.01924926	     12.95924976	    -22.85450351
      5.25000000	    -90.00000000	     90.00000000	    -90.00000000	    -56.30203524	    853.74707978	    -40.51682170	     29.87779423	     34.66517917	     45.00000000	     45.00000000	     15.01701422	   1780.73069386	    109.91003027	     30.66066132	    -36.87802372	   2518.44132596	    159.33239230	     14.86094817	     15.76947157	    -45.00000000	     20.42906336	     37.38408179	    -16.07122156	     45.00000000	   4425.17800688	  -4204.87000183	     22.34319616	   -166.20280760	   1790.56290346	     43.88276583	     13.13115770	    -22.67648397
      5.26000000	    -90.00000000	     90.00000000	    -90.00000000	    -53.69044392	    853.08727073	    -40.65277413	     29.86822277	     34.72899799	     45.00000000	     45.00000000	     14.85489892	   1780.48794947	    109.84121313	     30.49833435	    -37.84238702	   2518.43392118	    159.05642716	     14.74661377	     15.84421427	    -45.00000000	     20.53151448	     37.58596908	    -16.05233206	     45.00000000	   4425.17268285	  -4204.67363827	     22.09767408	   -165.16479579	   1790.61139884	     43.69439120	     13.24733563	    -22.54455075
      5.27000000	    -90.00000000	     90.00000000	    -90.00000000	    -50.95828905	    852.34990994	    -40.78519790	     29.84970879	     34.79323840	     45.00000000	     45.00000000	     14.67498224	   1780.24386062	    109.77901472	     30.32462978	    -38.84745692	   2518.42636779	    158.87501681	     14.63086857	     15.92704057	    -45.00000000	     20.68502815	     37.79596926	    -16.11729471	     45.00000000	   4425.28949421	  -4204.62403460	     21.87645854	   -164.19860439	   1790.57571742	     43.58869443	     13.39902632	    -22.36738565
      5.28000000	    -90.00000000	     90.00000000	    -90.00000000	    -48.11120171	    851.53085093	    -40.91072349	     29.83270413	     34.86697343	     45.00000000	     45.00000000	     14.50289607	   1779.96943264	    109.69775766	     30.16557618	    -39.86849344	   2518.42057562	    158.78641625	     14.53387383	     15.98401527	    -45.00000000	     20.82831395	     38.02646433	    -16.11398816	     45.00000000	   4425.30546613	  -4204.48703796	     21.63446074	   -163.15623790	   1790.61728135	     43.46187247	     13.52654476	    -22.19614696
      5.29000000	    -90.00000000	     90.00000000	    -90.00000000	    -45.14644521	    850.62084131	    -41.01482010	     29.79599336	     34.93848968	     45.00000000	     45.00000000	     14.29656822	   1779.70894538	    109.64149969	     29.98503006	    -40.91135880	   2518.42568719	    158.78378103	     14.40840072	     16.06952048	    -45.00000000	     21.00985257	     38.24517479	    -16.26915854	     45.00000000	   4425.53167783	  -4204.54257922	     21.41731123	   -162.19272515	   1790.51102546	     43.41771685	     13.70444199	    -21.94790554
      5.30000000	    -90.00000000	     90.00000000	    -90.00000000	    -42.06616682	    849.61462954	    -41.08954333	     29.76651392	     35.02982098	     45.00000000	     45.00000000	     14.12775407	   1779.38918357	    109.55211622	     29.83064522	    -41.95691570	   2518.41845344	    158.85983499	     14.31433328	     16.11473018	    -45.00000000	     21.14774383	     38.46145509	    -16.28968599	     45.00000000	   4425.57629842	  -4204.38240951	     21.17534853	   -161.21393216	   1790.56489667	     43.31370220	     13.84244897	    -21.75365957
      5.31000000	    -90.00000000	     90.00000000	    -90.00000000	    -38.83894435	    848.47808325	    -41.06632265	     29.71568405	     35.13249880	     45.00000000	     45.00000000	     13.95313330	   1779.06745183	    109.44828066	     29.67999962	    -42.99574842	   2518.41457610	    158.99910873	     14.20859925	     16.16548264	    -45.00000000	     21.40535104	     38.70543943	    -16.39940471	     45.00000000	   4425.71821703	  -4204.29755068	     21.01560907	   -160.39069410	   1790.65371521	     43.24484766	     13.97105288	    -21.52748697
      5.32000000	    -90.00000000	     90.00000000	    -90.00000000	    -35.48399677	    847.22301592	    -40.97597180	     29.65062803	     35.24892881	     45.00000000	     45.00000000	     13.80487118	   1778.74042559	    109.36401064	     29.53510018	    -44.02616130	   2518.41967332	    159.19206326	     14.09003125	     16.22195939	    -45.00000000	     21.69586794	     39.00266041	    -16.52630894	     45.00000000	   4425.83757894	  -4204.20769168	     20.80732908	   -159.61666452	   1790.75400096	     43.17918127	     14.08550006	    -21.27013813
